<?xml version="1.0" standalone="no"?>
<!DOCTYPE svg PUBLIC "-//W3C//DTD SVG 20010904//EN"
 "http://www.w3.org/TR/2001/REC-SVG-20010904/DTD/svg10.dtd">
<svg version="1.0" xmlns="http://www.w3.org/2000/svg"
 width="295.000000pt" height="295.000000pt" viewBox="0 0 295.000000 295.000000"
 preserveAspectRatio="xMidYMid meet">
<metadata>
Created by potrace 1.14, written by Peter Selinger 2001-2017
</metadata>
<g transform="translate(0.000000,295.000000) scale(0.100000,-0.100000)"
fill="#000000" stroke="none">
<path d="M27 2523 c-15 -18 -21 -36 -18 -60 1 -14 303 -346 428 -471 l83 -83
-40 -69 c-68 -116 -113 -231 -134 -343 -34 -179 33 -419 172 -616 66 -93 233
-263 311 -316 175 -118 485 -155 816 -96 180 32 490 146 598 219 l28 19 -39
31 -39 31 -88 -44 c-111 -56 -361 -139 -485 -162 -145 -26 -449 -24 -550 4
-142 40 -184 66 -316 197 -201 201 -290 360 -314 565 -12 98 0 177 45 296 26
71 102 215 113 215 9 0 162 -102 162 -108 0 -3 -12 -40 -27 -81 -23 -62 -28
-93 -28 -171 0 -85 3 -101 28 -148 58 -111 189 -219 371 -307 238 -115 460
-129 639 -39 28 14 60 33 70 42 15 14 24 12 95 -21 90 -43 162 -51 162 -18 0
10 -7 24 -15 31 -8 7 -15 23 -15 37 0 26 17 46 92 107 l48 38 -18 30 c-9 16
-37 41 -62 55 -119 67 -120 69 -120 121 0 107 -52 215 -138 284 -89 72 -299
115 -437 89 l-60 -11 -128 87 -129 88 39 33 c55 48 225 129 318 152 90 23 228
28 296 10 198 -51 399 -163 550 -307 77 -74 185 -218 216 -290 23 -52 21 -214
-4 -309 l-19 -71 39 -33 c21 -18 40 -31 41 -29 7 8 35 107 45 157 6 29 11 101
11 160 -1 131 -17 177 -112 313 -148 211 -385 387 -643 475 -93 32 -126 39
-215 42 -58 2 -129 0 -157 -6 l-53 -9 -60 55 c-68 61 -98 108 -81 125 17 17
13 52 -7 68 -50 40 -91 49 -111 25 -7 -8 -42 -24 -79 -35 -97 -29 -183 -89
-293 -203 l-96 -99 -183 91 c-228 114 -305 162 -335 210 -18 28 -35 41 -74 54
-63 20 -74 20 -94 -1z m1180 -175 c11 -24 42 -67 68 -96 26 -29 46 -54 44 -55
-2 -1 -47 -23 -99 -49 -52 -26 -122 -68 -155 -93 -33 -25 -63 -45 -68 -45 -11
0 -186 103 -187 110 -1 13 134 151 181 186 50 37 150 83 180 84 8 0 24 -19 36
-42z m431 -673 c143 -34 221 -101 241 -208 4 -26 7 -47 5 -47 -4 0 -398 251
-408 261 -16 14 92 10 162 -6z m-649 -98 l135 -93 11 -52 c21 -91 120 -189
215 -212 48 -12 118 -7 151 11 11 6 46 -11 120 -57 57 -36 104 -70 104 -76 0
-6 -29 -22 -65 -37 -56 -22 -81 -25 -180 -25 -131 0 -196 14 -327 75 -158 72
-304 190 -338 274 -22 50 -19 150 6 223 11 34 24 62 27 62 4 0 67 -42 141 -93z
m376 -255 c-5 -5 -63 27 -71 39 -3 6 12 0 34 -12 22 -13 39 -25 37 -27z"/>
</g>
</svg>
